<svg width="28" height="28" viewBox="0 0 28 28" fill="none" xmlns="http://www.w3.org/2000/svg">
<path d="M11.9 5.6C15.372 5.6 18.2 8.428 18.2 11.9C18.2 15.372 15.372 18.2 11.9 18.2C8.428 18.2 5.6 15.372 5.6 11.9C5.6 8.428 8.428 5.6 11.9 5.6ZM11.9 3.5C7.259 3.5 3.5 7.259 3.5 11.9C3.5 16.541 7.259 20.3 11.9 20.3C16.541 20.3 20.3 16.541 20.3 11.9C20.3 7.259 16.541 3.5 11.9 3.5Z" fill="#C4C4C4"/>
<path d="M23.45 24.4999C23.184 24.4999 22.911 24.3949 22.708 24.1919L16.408 17.8919C15.995 17.4789 15.995 16.8139 16.408 16.4079C16.821 15.9949 17.486 15.9949 17.892 16.4079L24.192 22.7079C24.605 23.1209 24.605 23.7859 24.192 24.1919C23.989 24.3949 23.716 24.4999 23.45 24.4999Z" fill="#C4C4C4"/>
</svg>
