<svg width="200" height="24" viewBox="0 0 200 24" fill="none" xmlns="http://www.w3.org/2000/svg">
<g clip-path="url(#clip0_304_233)">
<path d="M148.496 0.960938L142.935 0.970547L134.987 9.73901L134.989 15.9009L139.398 11.0261V22.8641H144.473V5.41236L148.496 0.960938Z" fill="white"/>
<path d="M166.855 22.8559H148.886L148.888 0.993521L154.12 0.986328V8.68124L166.454 4.24422L166.448 7.9783L154.12 12.3961V20.0682H165.438L166.855 22.8559Z" fill="white"/>
<path d="M5.73369 13.501H23.6557V19.7565H5.73369V13.501ZM5.73369 4.83088H23.6557V10.7625H5.73369V4.83088ZM0 22.6221H29.3905V2.02881H0V22.6221Z" fill="white"/>
<path d="M41.8705 8.63055V5.94244H39.1824V0.956055H34.0989V5.94244H31.3124V8.63055H34.0989V15.2675L31.3124 16.8412V20.507L34.0989 18.9332V22.9012H39.1824V16.0616L41.8705 14.543V10.8772L39.1824 12.3971V8.63055H41.8705Z" fill="white"/>
<path d="M42.3959 0.956543V5.35397H47.5527V3.25242H58.208V5.35397H63.3635V0.956543H42.3959Z" fill="white"/>
<path d="M63.3645 8.62982V5.89013H55.4584V3.78857H50.2285V5.89013H42.3957V8.62982H50.2285V9.26437H42.3957V17.0372H50.2285V17.7198H41.4673V20.5566H50.2285V22.9017H55.4584V20.5566H63.3645V17.7198H55.4584V17.0372H63.3645V9.26437H55.4584V8.62982H63.3645ZM50.2285 15.124H47.2957V14.0001H50.2285V15.124ZM50.2285 12.2883H47.2957V11.1644H50.2285V12.2883ZM55.4632 11.1644H58.3961V12.2883H55.4632V11.1644ZM55.4632 14.0001H58.3961V15.124H55.4632V14.0001Z" fill="white"/>
<path d="M200 8.23434V5.48866H190.918L188.575 0.976074H182.87L185.246 5.48866H171.288L167.615 22.8505H173.119L175.151 13.8577H178.443L176.489 22.8505H182.043L184.694 11.0256H175.791L176.422 8.23434H186.691L190.144 14.7909L182.913 22.8876H188.275L192.122 18.5466L194.408 22.8876L199.952 22.8816L195.637 14.575L199.948 9.70615H194.681L193.688 10.8217L192.343 8.23434H200Z" fill="white"/>
<rect x="194.44" y="1.6416" width="5.32704" height="2.7361" fill="white"/>
<path d="M76.9586 5.83257L80.6075 0.914551H69.5084L66.2169 5.35396H70.9394L72.8358 2.80139H74.1433L71.8966 5.83257H66.1917V22.8789H71.1109V16.759H77.5163V22.8789H82.4368V5.83257H76.9586ZM77.5163 9.9781H75.8298V8.52068H77.5163V9.9781ZM71.1109 8.52188H72.7411V9.97929H71.1109V8.52188ZM71.1109 12.6686H72.7411V14.0696H71.1109V12.6686ZM75.8298 12.6686H77.5163V14.0696H75.8298V12.6686Z" fill="white"/>
<path d="M99.6462 22.8957H94.703L94.3911 21.3879L83.0125 22.8213V20.132L87.1832 19.609V14.9585H82.9981V3.48631H87.1832V0.914551H92.1036V3.48631H98.2715V14.9585H92.1036V18.9865L93.8501 18.767L93.29 16.0632H98.2332L99.6462 22.8957ZM87.1592 6.60506H86.1013V11.8206H87.1592V6.60506ZM93.3379 6.60506H92.0784V11.8206H93.3379V6.60506Z" fill="white"/>
<path d="M133.149 19.7903L127.403 16.4988H133.083V13.9078H126.142L126.144 13.0262H130.97V5.60358H133.083V3.0798H130.97V0.977051L125.887 0.981849V3.0798H121.372V0.977051L116.342 0.981849V3.0798H114.117V5.60358H116.342V13.0262H121.112V13.9078H114.229V16.4988H119.864L114.117 19.7903V23.0889L121.112 18.9518V22.909H126.142V18.9422L133.149 23.0889V19.7903ZM121.372 5.60358H125.887V6.73113H121.372V5.60358ZM121.372 9.17574H125.887V10.4784H121.372V9.17574Z" fill="white"/>
<path d="M115.786 6.06033H108.47V0.975586H103.359V6.06033H101.321V8.57692H103.359V13.8008L105.416 15.3002L101.398 18.5881V22.9459L108.298 17.4042L113.408 21.1323V16.814L111.102 15.1527L114.445 12.4658V8.52054H115.786V6.06033ZM108.47 8.57692H109.531V11.9344L108.47 12.8028V8.57692Z" fill="white"/>
</g>
<defs>
<clipPath id="clip0_304_233">
<rect width="200" height="22.1743" fill="white" transform="translate(0 0.914551)"/>
</clipPath>
</defs>
</svg>
